<svg xmlns="http://www.w3.org/2000/svg" width="330.085" height="50" viewBox="0 0 330.085 50">
  <g id="radio_bremen_logo" data-name="radio bremen logo" transform="translate(-4.79 -17.809)">
    <path id="Pfad_1" data-name="Pfad 1" d="M29.786,24.484a18.325,18.325,0,0,0-3.336,36.342V42.8h6.678V60.827a18.325,18.325,0,0,0-3.342-36.342m0-6.675a25,25,0,1,1-25,25,25,25,0,0,1,25-25" transform="translate(0 0)" fill="#f44336"/>
    <path id="Pfad_2" data-name="Pfad 2" d="M118.057,45.236c0-2.562-.148-5.078-.195-7.638h2.611c.049,1.448.146,2.9.195,3.916h.1c1.79-3.532,3.867-4.257,6.576-4.257v3c-4.448,0-6.48,1.93-6.48,6.474V62.255h-2.8ZM142.9,49.828c-5.8,0-10.686,0-10.686,5.612a4.491,4.491,0,0,0,4.546,4.541c1.307,0,6.139-.531,6.139-7.25v-2.9Zm2.614,6.914c0,1.838.143,3.677.29,5.513h-2.516l-.2-3.53H143a7.337,7.337,0,0,1-6.917,3.868,6.958,6.958,0,0,1-6.864-7.154c0-7.885,8.365-8.027,11.895-8.027H142.9c0-3.1,0-7.545-5.125-7.545a10.227,10.227,0,0,0-6.189,2.563l-.434-3c2.321-1.259,4.061-2.174,6.768-2.174,7.594,0,7.594,6.378,7.594,8.169V56.742Zm8.651-6.814c0,2.028,0,10.053,5.606,10.053,4.785,0,6.093-4.735,6.093-9.765,0-3.289,0-10.349-6.043-10.349-4.2,0-5.656,4.35-5.656,10.06m14.31,4.159c0,3.867.1,6.043.2,8.168h-2.613V58.873h-.1c-1.832,2.319-3.381,3.72-6.474,3.72-8.028,0-8.319-10.153-8.319-13.586,0-4.69,1.985-11.751,8.174-11.751a6.422,6.422,0,0,1,6.236,3.531h.1v-14.8h2.8v28.1Zm6.816-26.307h3.384v4.35h-3.384Zm.29,9.817h2.8V62.255h-2.8Zm18.026,25c-7.206,0-9.234-6.479-9.234-12.665s2.028-12.672,9.234-12.672,9.233,6.478,9.233,12.672-2.026,12.665-9.233,12.665m0-2.606c6.239,0,6.239-8.081,6.239-10.059s0-10.06-6.239-10.06-6.239,8.078-6.239,10.06,0,10.059,6.239,10.059m20.984-10.253c0,4.686,1.209,8.509,4.738,8.509,3.484,0,4.4-2.9,4.4-8.651,0-4.985-1.16-8.224-4.5-8.224-3.289,0-4.64,3.532-4.64,8.366m0-23.742V40.935h.094a6.7,6.7,0,0,1,6.435-3.967c5.366,0,8.608,4.739,8.608,12.862,0,6.912-2.568,12.817-8.752,12.817a6.706,6.706,0,0,1-6.624-4.259h-.149a32.662,32.662,0,0,1-.192,3.867H208.4A32.148,32.148,0,0,0,208.6,58V25.992Zm20.547,36.264h5.993V48.622c0-4.641,2.712-6.142,5.177-6.142a6.263,6.263,0,0,1,1.69.24V37.114a6.174,6.174,0,0,0-1.013-.147c-3.728,0-5.612,3-6.337,4.932h-.095c0-1.5-.147-3.047-.2-4.546h-5.416a33.344,33.344,0,0,1,.2,4.11V62.255Zm29.581-14.6c0-4.4-1.449-6.622-4.156-6.622-3.141,0-4.448,3.334-4.448,6.622Zm4.548,13.4a18.47,18.47,0,0,1-7.445,1.6c-8.029,0-11.51-5.757-11.51-12.481,0-7.443,3.918-13.2,10.252-13.2,5.367,0,9.96,3.144,9.96,13.3v1.157H256.118c0,4.257,1.69,6.817,6.332,6.817a9.911,9.911,0,0,0,6.53-1.932ZM276,62.255h5.994V47.173c0-2.759,1.4-5.274,4.064-5.274,2.224,0,3.191,1.548,3.191,4.644V62.255h5.994V47.173c0-2.759,1.4-5.274,4.064-5.274,2.222,0,3.192,1.548,3.192,4.644V62.255h5.993V46.877c0-6.041-1.739-9.91-7.154-9.91-3.674,0-5.465,2.223-6.676,3.967a6.437,6.437,0,0,0-6.284-3.967,6.928,6.928,0,0,0-6.289,4.3h-.1c0-1.3-.146-2.61-.188-3.916h-6a39.352,39.352,0,0,1,.2,4.063V62.255Zm51.98-14.6c0-4.4-1.452-6.622-4.16-6.622-3.141,0-4.444,3.334-4.444,6.622Zm4.545,13.4a18.465,18.465,0,0,1-7.445,1.6c-8.025,0-11.508-5.757-11.508-12.481,0-7.443,3.912-13.2,10.249-13.2,5.368,0,9.964,3.144,9.964,13.3v1.157H319.374c0,4.257,1.687,6.817,6.329,6.817a9.889,9.889,0,0,0,6.527-1.932Zm6.875,1.208h5.994v-14.5c0-3.194,1.115-5.853,4.254-5.853,2.471,0,3.435,1.593,3.435,5.415v14.94h6V46.2c0-5.029-1.692-9.236-7.351-9.236-4.064,0-5.755,2.707-6.626,4.207h-.092c0-1.257-.145-2.563-.2-3.821H339.2a33.777,33.777,0,0,1,.2,4.11Zm39.5-25.067-7.528,2.7V31.468l-3.73,1.35V30.032l11.257-4.041v11.2Zm-4.489-14.073a9.546,9.546,0,1,1-9.547,9.544,9.543,9.543,0,0,1,9.547-9.544Zm0-1.639a11.185,11.185,0,1,0,11.181,11.182,11.185,11.185,0,0,0-11.181-11.182Z" transform="translate(-50.712 -1.645)" fill="#f3f3f3"/>
  </g>
</svg>
