<svg xmlns="http://www.w3.org/2000/svg" width="480" height="132.787" viewBox="0 0 480 132.787">
  <g id="bremen_vier_logo" data-name="bremen vier logo" transform="translate(-20 -19.996)">
    <g id="Layer_x0020_1" transform="translate(20 19.996)">
      <path id="path3805" d="M220.417,44.323a3.023,3.023,0,0,1,1.3-2.567l2.791-2.423a2.913,2.913,0,0,1,1.8-.768h1.349a1.525,1.525,0,0,1,1.037.363l1.972,1.529a2.293,2.293,0,0,1,.588,1.793v7.643c0,.855-.044,1.892-.536,2.3l-1.892,1.573a1.934,1.934,0,0,1-1.349.4h-1.618c-.45,0-1.124-.625-1.667-1.074l-2.473-2.117a2.97,2.97,0,0,1-1.3-2.878Zm0-16c0-1.485-.319-2.966-2.159-2.966s-2.161,1.481-2.161,2.966v27.15c0,1.487.319,3.009,2.161,3.009,1.71,0,2.159-1.48,2.159-2.871V55.33l.988.95c1.21,1.124,2.428,2.2,4.177,2.2h2.792a5.881,5.881,0,0,0,3.372-1.522l1.485-1.262a5.721,5.721,0,0,0,2.336-4.99V42.026a5.721,5.721,0,0,0-2.336-4.99l-1.485-1.255a5.163,5.163,0,0,0-3.191-1.529h-3.1c-1.981,0-2.836.941-4.271,2.384l-.763.763ZM208.2,109.049a40.515,40.515,0,1,1,40.511,40.518A40.513,40.513,0,0,1,208.2,109.049Zm85.937,0a40.515,40.515,0,1,1,40.511,40.518A40.513,40.513,0,0,1,294.142,109.049Zm85.937,0A40.515,40.515,0,1,1,420.6,149.567,40.514,40.514,0,0,1,380.079,109.049Zm85.936,0a40.518,40.518,0,1,1,40.518,40.518A40.515,40.515,0,0,1,466.015,109.049ZM269.853,41.737a2,2,0,0,1,.917-2.011l1.5-1.1a3.55,3.55,0,0,1,2.242-.5h1.373a3.08,3.08,0,0,1,2.1.551l1.692,1.46c.595.55.551,1.23.551,2.055v2.935H269.853ZM281.6,58.653c1.281,0,3.016-.275,3.016-2.2,0-1.873-1.554-2.191-3.016-2.191h-7.08c-1.462,0-2.329-.181-2.929-.818l-1.092-1.193a2.15,2.15,0,0,1-.642-1.28V49.511H281.6c2.605,0,3.016-.729,3.016-3.239v-3.8c0-2.423-.275-4.115-2.285-5.714l-1.779-1.411a6.267,6.267,0,0,0-4.839-1.605h-1.7a5.9,5.9,0,0,0-4.839,1.83l-1.554,1.324c-1.83,1.554-2.149,2.928-2.149,5.257v8.737a5.457,5.457,0,0,0,2.242,4.931l1.873,1.642c1.368,1.193,2.1,1.193,3.928,1.193Zm50.347-16.916a2,2,0,0,1,.912-2.011l1.5-1.1a3.55,3.55,0,0,1,2.242-.5h1.373a3.108,3.108,0,0,1,2.1.551l1.685,1.46c.593.55.551,1.23.551,2.055v2.935H331.943Zm11.746,16.916c1.273,0,3.009-.275,3.009-2.2,0-1.873-1.549-2.191-3.009-2.191H336.6c-1.462,0-2.329-.181-2.922-.818l-1.1-1.193a2.143,2.143,0,0,1-.637-1.28V49.511h11.746c2.6,0,3.009-.729,3.009-3.239v-3.8c0-2.423-.269-4.115-2.28-5.714l-1.786-1.411a6.25,6.25,0,0,0-4.839-1.605h-1.7a5.9,5.9,0,0,0-4.839,1.83L329.7,36.893c-1.823,1.554-2.147,2.928-2.147,5.257v8.737a5.459,5.459,0,0,0,2.241,4.931l1.874,1.642c1.366,1.193,2.1,1.193,3.928,1.193ZM249.983,42.381V54.251l2.312.007c1.336.062,2.628.487,2.628,2.2,0,1.768-1.462,2.154-2.7,2.205-.113.005-2.267,0-2.379,0h-6.538c-1.287,0-3.029-.276-3.029-2.205,0-1.885,1.561-2.2,3.029-2.2h2.267V38.18H243.4c-1.285,0-3.027-.276-3.027-2.206,0-1.88,1.559-2.2,3.027-2.2h4.641a1.082,1.082,0,0,1,.655.168,2.666,2.666,0,0,1,1.292,2.611l1.082-.894a6.631,6.631,0,0,1,3.908-1.885l3.559-.007c1.517,0,3.034.319,3.034,2.206s-1.517,2.2-3.034,2.2h-2.011l-.538.007a3.416,3.416,0,0,0-2.2,1.06Zm46.126-6.407a6.159,6.159,0,0,1,2.9-1.5h3.159a5.3,5.3,0,0,1,3.959,1.623,5.716,5.716,0,0,1,.549.556c1.186-.781,3.434-2.179,4.733-2.179h3.166A5.3,5.3,0,0,1,318.53,36.1c1.912,1.71,1.823,3.614,1.912,6.02l-.057,13.255c.044,1.573-.175,3.285-2.085,3.285-1.736,0-2.043-1.48-2.087-2.966V42.724c-.087-2.735-.312-3.8-2.891-3.8H311.9a2.521,2.521,0,0,0-1.336.419l-2.529,1.692V55.382c.044,1.574-.138,3.278-2.048,3.278-1.736,0-2.142-1.48-2.186-2.966l.007-12.969c-.089-2.735-.313-3.8-2.892-3.8h-1.423a2.53,2.53,0,0,0-1.336.419L296.1,41.156V55.6c0,1.524-.311,3.06-2.134,3.06s-2.129-1.531-2.129-3.053V36.292c0-1.618.393-2.559,2.135-2.554C295.577,33.751,296.076,34.489,296.108,35.974Zm62.167.225a12.392,12.392,0,0,1,4.62-1.722h3.2a5.362,5.362,0,0,1,4,1.623c1.936,1.71,1.848,3.614,1.936,6.02l-.012,13.206c.043,1.579-.182,3.335-2.117,3.335-1.756,0-2.112-1.524-2.154-3.011l.012-12.924c-.088-2.735-.313-3.8-2.922-3.8h-1.437a2.565,2.565,0,0,0-1.349.419l-3.765,1.917v14.3c0,1.531-.319,3.053-2.161,3.053s-2.154-1.522-2.154-3.053V36.292c0-1.618.474-2.559,2.154-2.559C357.65,33.733,358.248,34.707,358.275,36.2Z" transform="translate(-67.051 -21.338)" fill="#fff" fill-rule="evenodd"/>
      <path id="path3807" d="M86.393,37.733a48.661,48.661,0,0,0-8.867,96.508V86.386H95.259v47.855a48.662,48.662,0,0,0-8.866-96.508Zm0-17.733A66.393,66.393,0,1,1,20,86.393,66.393,66.393,0,0,1,86.393,20Z" transform="translate(-20 -20)" fill="#212121" fill-rule="evenodd"/>
      <path id="path3809" d="M512.541,122.369v24.077c.18,0,4.508.007,4.688.02,2.717.124,5.328.98,5.328,4.451,0,3.579-2.961,4.372-5.464,4.478-.237.005-4.6,0-4.827,0H499c-2.611,0-6.151-.563-6.151-4.478,0-3.821,3.165-4.471,6.151-4.471h4.59v-32.6h-4.414c-2.611,0-6.151-.563-6.151-4.478,0-3.821,3.172-4.469,6.151-4.469h9.415a2.144,2.144,0,0,1,1.324.344c1.936.83,2.567,3.028,2.623,5.294l2.2-1.816c2.515-2.05,5.126-3.821,7.924-3.821l7.223-.014c3.078,0,6.151.65,6.151,4.471s-3.073,4.478-6.151,4.478H525.81l-1.1.012c-1.68,0-2.892.837-4.471,2.142Zm-96.29-1.722c0-2.618.749-3.266,1.867-4.11L421.2,114.3a7.219,7.219,0,0,1,4.57-1.025h2.809c1.4,0,3.173.094,4.3,1.119l3.451,2.991c1.212,1.117,1.118,2.515,1.118,4.2V127h-21.2Zm24,33.98c2.611,0,6.156-.563,6.156-4.483,0-3.829-3.172-4.478-6.156-4.478h-14.48c-2.984,0-4.758-.374-5.975-1.68l-2.236-2.429a4.384,4.384,0,0,1-1.312-2.616v-2.984h24c5.321,0,6.156-1.492,6.156-6.632v-7.186c0-4.945-.556-8.4-4.664-11.671l-3.641-2.891c-3.453-2.8-5.506-3.266-9.9-3.266h-3.46c-3.639,0-5.694.094-9.9,3.734l-3.172,2.7c-3.735,3.179-4.39,5.975-4.39,10.74v17.264c0,4.859,1.023,6.912,4.577,10.083l3.827,3.359c2.8,2.43,4.29,2.43,8.023,2.43Zm-93.986-43.9c0-5.269-1.48-6.2-6.568-6.2h-6.089c-2.966,0-6.107.65-6.107,4.446,0,3.883,3.515,4.439,6.107,4.439h3.772v32.107H330.35c-2.959,0-6.106.644-6.106,4.439,0,3.885,3.515,4.441,6.106,4.441H352.93c2.591,0,6.107-.556,6.107-4.441,0-3.795-3.147-4.439-6.107-4.439h-6.662Zm-91.3,34.419L242.11,115.638V111.1c0-3.142-.55-6.57-4.533-6.57-3.142,0-4.347,2.5-4.347,5.37v6.289a7.328,7.328,0,0,0,1.018,3.609l13.232,29.054c.83,1.848,2.4,5.551,4.627,5.551h5.731c2.223,0,3.8-3.7,4.627-5.551L275.7,119.8a7.309,7.309,0,0,0,1.018-3.609V109.9c0-2.873-1.2-5.37-4.345-5.37-3.979,0-4.534,3.428-4.534,6.57v4.538Z" transform="translate(-73.308 -41.078)" fill="#ffeb3b" fill-rule="evenodd"/>
    </g>
  </g>
</svg>
