<svg xmlns="http://www.w3.org/2000/svg" width="480" height="138.281" viewBox="0 0 480 138.281">
  <g id="bremen_eins_logo" data-name="bremen eins logo" transform="translate(-20 -19.994)">
    <g id="Layer_x0020_1" transform="translate(20 19.994)">
      <g id="_77750408">
        <path id="_47832688" d="M20,89.144a69.138,69.138,0,1,1,138.275,0c0,37.542-30.978,69.136-69.139,69.136S20,126.682,20,89.144Zm119.813,0a50.671,50.671,0,1,0-59.907,49.829V89.136H98.376v49.836a51.054,51.054,0,0,0,41.437-49.829Z" transform="translate(-20 -20)" fill="#212121" fill-rule="evenodd"/>
        <path id="_77762816" d="M235.387,53.571v1.882h3.025l1.292-1.882.489-.716c.221.256.441.5.66.716a8.185,8.185,0,0,0,6.5,2.6,9.157,9.157,0,0,0,6.888-2.6c2.067-2.123,3.1-5.5,3.1-9.942a15.421,15.421,0,0,0-.582-4.259,11.3,11.3,0,0,0-1.713-3.559h-.006a8.847,8.847,0,0,0-7.5-3.565,8.015,8.015,0,0,0-6.3,3.573c-.028.042-.062.084-.091.127h-.1V23.6h-9.459v3.173h1.868c1.349,0,1.924.525,1.924,1.918V53.571ZM271.6,35.82V32.971H261.42v3.168h2.641c1.342,0,1.918.526,1.918,1.924v12.3c0,1.391-.576,1.916-1.918,1.916H261.42v1.292h-.006v1.882H276.6V52.279H273.57c-1.343,0-1.919-.526-1.919-1.916V42.337a9.52,9.52,0,0,1,.483-2.967,6.907,6.907,0,0,1,2.542-3.551,5.118,5.118,0,0,1,2.933-.882,2.581,2.581,0,0,1,2.017.676,4.073,4.073,0,0,0-1.2.2l4.843.008h-4.843a2.708,2.708,0,0,0-1.975,2.677,3.351,3.351,0,0,0,.115.874,3.189,3.189,0,0,0,3.3,2.2,3.427,3.427,0,0,0,3.3-2.2,4.9,4.9,0,0,0,.348-1.84,5.632,5.632,0,0,0-.248-1.711c-.747-2.372-3.039-3.573-5.568-3.573-2.343,0-3.784,1.216-5.453,3.565l2.428.008H272.25c-.177.247-.362.517-.548.8h-.1Zm24.421,0a4.426,4.426,0,0,1,1.385-.206,4.647,4.647,0,0,1,1.427.206,4.234,4.234,0,0,1,2.711,3.543l5.944.008h-5.944a10.478,10.478,0,0,1,.185,2.242h-8.939a11.155,11.155,0,0,1,.33-2.242h0A4.668,4.668,0,0,1,296.025,35.82Zm9.473,0a10.03,10.03,0,0,0-7.989-3.573,10.682,10.682,0,0,0-8.259,3.573,11.181,11.181,0,0,0-2.074,3.551,14.048,14.048,0,0,0-.817,4.843c0,4.2,1.143,7.349,3.374,9.358,1.9,1.719,4.588,2.6,8.009,2.6s5.944-.916,7.663-2.6a9.843,9.843,0,0,0,2.669-6.093h-3.99c-.626,3.317-2.351,5.093-5.81,5.093-4.467,0-5.624-4.034-5.481-7.784h15.381a12.92,12.92,0,0,0-.682-5.417A11.641,11.641,0,0,0,305.5,35.82Zm17.448,0V32.971H312.613v3.168H315.3c1.349,0,1.924.526,1.924,1.924v12.3c0,1.391-.576,1.916-1.924,1.916h-2.691v1.292h13.648V52.279H324.82c-1.349,0-1.924-.526-1.924-1.916v-8.65a5.713,5.713,0,0,1,.525-2.343A5.511,5.511,0,0,1,328.278,36c2.52,0,3.2,1.357,3.338,3.374.022.29.028.59.028.9V50.363c0,1.391-.582,1.916-1.924,1.916h-1.441v1.292h0v1.882h12.251V52.279h-1.292c-1.348,0-1.924-.526-1.924-1.916v-8.65a5.916,5.916,0,0,1,.483-2.343A5.409,5.409,0,0,1,342.645,36c1.874,0,3.408,1.1,3.408,3.025V50.363c0,1.391-.576,1.916-1.918,1.916h-1.391v1.292h0v1.882h13.453V52.279h-2.551c-1.342,0-1.916-.526-1.916-1.916V39.022a7.359,7.359,0,0,0-.676-3.2,6.4,6.4,0,0,0-6.007-3.573,8.758,8.758,0,0,0-7.186,3.573c-.264.312-.525.646-.789.994a6.614,6.614,0,0,0-.362-.994c-1.079-2.436-3.217-3.573-6.029-3.573a7.739,7.739,0,0,0-6.81,3.573c-.284.382-.553.795-.823,1.236h-.1Zm46.4,0a4.434,4.434,0,0,1,1.385-.206,4.637,4.637,0,0,1,1.427.206,4.24,4.24,0,0,1,2.714,3.543l5.942.008H374.87a10.615,10.615,0,0,1,.183,2.242H366.12a11.173,11.173,0,0,1,.326-2.242h0A4.674,4.674,0,0,1,369.344,35.82Zm9.473,0a10.018,10.018,0,0,0-7.989-3.573,10.678,10.678,0,0,0-8.257,3.573A11.151,11.151,0,0,0,360.5,39.37a14.048,14.048,0,0,0-.815,4.843c0,4.2,1.149,7.349,3.38,9.358,1.9,1.719,4.579,2.6,8.009,2.6,3.4,0,5.936-.916,7.655-2.6a9.844,9.844,0,0,0,2.671-6.093h-3.983c-.626,3.317-2.359,5.093-5.818,5.093-4.467,0-5.616-4.034-5.475-7.784h15.375a12.82,12.82,0,0,0-.682-5.417A11.547,11.547,0,0,0,378.817,35.82Zm16.766,0V32.971H385.25v3.168h1.59c2.5,0,3.076.526,3.076,2.591V50.363c0,1.391-.576,1.916-1.925,1.916H385.25v1.292h14.133V52.279h-1.876c-1.349,0-1.924-.526-1.924-1.916V41.522a4.914,4.914,0,0,1,.511-2.152A6.026,6.026,0,0,1,400.965,36c2.073,0,3.835.618,4.169,3.366l2.858,0-2.858,0a8.438,8.438,0,0,1,.056.994v10c0,1.391-.576,1.916-2.591,1.916h-1.157v1.292h14.03V52.279h-1.731c-2.3,0-2.884-.526-2.884-1.916V39.98c0-.2,0-.407-.006-.61v-.008h0a9.711,9.711,0,0,0-.753-3.543c-1.059-2.393-3.182-3.573-6.057-3.573a9.232,9.232,0,0,0-7.38,3.573,13.256,13.256,0,0,0-.978,1.328h-.1ZM250.462,39.37a20,20,0,0,1,.441,4.843c0,5.523-1.725,8.215-4.942,8.215-3.9,0-4.95-2.357-4.95-8.215a15.381,15.381,0,0,1,.643-4.843h0c.781-2.267,2.23-3.374,4.3-3.374C248.517,36,249.846,37.011,250.462,39.37Zm6.633,31.955a35.718,35.718,0,0,0-23.078,17.752,46.321,46.321,0,0,0-5.411,22.483,54.748,54.748,0,0,0,3.36,20.125c5.5,13.96,17.71,21.3,36.074,21.3,18.441,0,29.492-7.74,33.908-21.3a44.556,44.556,0,0,0,1.868-8.813H290a28.908,28.908,0,0,1-3,8.813c-3.253,5.787-8.714,8.827-17.128,8.827-7.846,0-12.74-3.593-15.594-8.827-2.776-5.093-3.621-11.732-3.373-18.131h53.244a44.24,44.24,0,0,0-4.871-24.483h0a34.352,34.352,0,0,0-22.137-17.746,40.088,40.088,0,0,0-9.928-1.194,42.27,42.27,0,0,0-10.113,1.194Zm4.326-17.754h0Zm64.841,0H312.617v1.882h13.644V53.571H312.613m15.665,0h0Zm14.465,0h0Zm56.64,0H385.257v1.882h14.127V53.571H385.25m30.222,0H401.444v1.882h14.028V53.571h-14.03m40.384,17.754a28.759,28.759,0,0,0-8.529-1.194,33.1,33.1,0,0,0-9,1.194c-8.386,2.343-14.821,8.032-19.948,15.771h-.326V72.624H368.243V83.6h5.489c7.017,0,9.658,1.208,10.4,5.469l25.792.006H384.135a20.162,20.162,0,0,1,.25,3.515v40.265c0,4.821-1.995,6.653-6.655,6.653h-9.487v10.979h48.921V139.51h-6.49c-4.66,0-6.655-1.832-6.655-6.653V102.245a18.785,18.785,0,0,1,5.908-13.167c3.714-3.686,8.579-5.972,12.726-5.972,5.439,0,10.268,1.236,12.791,5.972a19.491,19.491,0,0,1,1.852,9.169v34.61c0,4.821-2,6.653-8.99,6.653h-3.99v10.979H472.9V139.51h-5.994c-7.982,0-9.976-1.832-9.976-6.653V96.918a43.2,43.2,0,0,0-.668-7.846h0c-1.734-9.5-6.824-15.384-14.436-17.746Zm78.307-.008a37.279,37.279,0,0,0-9.247-1.186,38.685,38.685,0,0,0-9.523,1.194c-9.374,2.385-17.668,8.35-20.168,17.752a23.628,23.628,0,0,0-.759,6.008c0,29.675,52.045,20.528,52.407,36.6a1.583,1.583,0,0,1,.006.169c0,6.826-7.158,9.986-12.982,9.986-10.018,0-17.929-3.353-23-10.163h-.006a30.6,30.6,0,0,1-5.107-11.631h-12.15v30.442H490.59l3.323-5.987c7.818,6.826,17.8,8.486,27.787,8.486,14.608,0,28.491-6.242,30.259-21.3a27.471,27.471,0,0,0,.193-3.323c0-30.45-52.415-24.294-52.415-37.268a8.232,8.232,0,0,1,.242-2.017c1.292-5.119,7.512-6.967,12.406-6.967,7.889,0,13.889,2.331,18.263,6.967a29.763,29.763,0,0,1,6.363,11.333h10.816V72.624h-9.153l-3.331,5.66a48.817,48.817,0,0,0-15.175-6.967Zm-193.46,60.368v1.171c0,4.821-2,6.653-6.655,6.653h-7.655v10.979h48.749V139.51h-8.152c-4.658,0-6.653-1.832-6.653-6.653V72.624H312.364V83.6h7.655c4.253,0,6.292,1.534,6.61,5.475.03.376.044.767.044,1.186v41.422ZM254.327,89.078a13.672,13.672,0,0,1,12.547-7.3c6.321,0,10.212,2.947,12.442,7.3,1.93,3.784,2.613,8.621,2.534,13.493H250.9C251.138,97.7,252.161,92.862,254.327,89.078Z" transform="translate(-72.151 -20.9)" fill="#f3f3f3" fill-rule="evenodd"/>
      </g>
    </g>
  </g>
</svg>
