<svg id="bremen_zwei_logo" data-name="bremen zwei logo" xmlns="http://www.w3.org/2000/svg" width="480" height="160" viewBox="0 0 480 160">
  <path id="Pfad_37" data-name="Pfad 37" d="M300.7,25.233h20.267V5.5H300.7Zm.533,98.133h19.733V40.7H300.7Zm-60.8-48.533c0-10.667,4.267-21.867,14.933-21.867s13.867,7.467,13.867,21.867Zm42.667,28.8a32.533,32.533,0,0,1-21.333,6.4c-15.467,0-20.8-8.533-20.8-22.4h47.467V83.9c0-33.6-15.467-44.267-33.067-44.267s-34.133,19.2-34.133,43.733,11.733,41.067,37.867,41.067a61.333,61.333,0,0,0,24.533-5.333ZM173.233,123.367h21.333L216.433,40.7h-19.2l-13.333,64h-.533l-13.333-64h-22.4l-13.867,64h-.533L119.9,40.7H99.633l22.4,82.667H143.9l14.4-64h.533Zm-136.533,0h56V107.9H56.967L91.633,57.767V40.7H37.767V55.633H71.9L36.7,105.767Z" transform="translate(159.033 23.833)" fill="#212121"/>
  <g id="Gruppe_8" data-name="Gruppe 8" transform="translate(196.267 7.467)">
    <path id="Pfad_38" data-name="Pfad 38" d="M68.533,32.6h4.8V15.533c0-5.333,2.133-7.467,5.867-7.467S84,10.2,84,14.467V32.6h4.8V12.867c0-6.4-3.2-9.067-8.533-9.067a7.467,7.467,0,0,0-6.933,4.8h0V4.333H68V10.2Z" transform="translate(98.4 9)" fill="#212121"/>
    <path id="Pfad_39" data-name="Pfad 39" d="M82.8,17.233C82.8,8.7,79.067,3.9,72.667,3.9S62,9.233,62,18.3s3.733,14.4,11.2,14.4a19.2,19.2,0,0,0,8.533-1.6V26.833a12.267,12.267,0,0,1-6.4,2.133c-5.333,0-7.467-3.2-7.467-9.6h16Zm-16-1.067c0-6.4,2.667-9.067,5.867-9.067S78,10.3,78,16.167Z" transform="translate(72.4 9.433)" fill="#212121"/>
    <path id="Pfad_40" data-name="Pfad 40" d="M53.7,32.948h4.8v-17.6c0-5.333,2.133-7.467,5.333-7.467s4.267,1.6,4.267,5.333V32.948h4.8v-17.6c0-5.333,2.133-7.467,5.333-7.467s4.267,1.6,4.267,5.333V32.948h4.8V13.215c0-6.4-3.2-9.067-8-9.067a7.467,7.467,0,0,0-6.933,4.267,7.467,7.467,0,0,0-13.867,0h0V4.682H54.233v5.867Z" transform="translate(36.433 8.652)" fill="#212121"/>
    <path id="Pfad_41" data-name="Pfad 41" d="M68.833,17.233C68.833,8.7,65.1,3.9,58.7,3.9S47.5,9.767,47.5,18.3s3.733,14.4,11.2,14.4a19.2,19.2,0,0,0,8.533-1.6V26.833a12.267,12.267,0,0,1-6.4,2.133c-5.333,0-7.467-3.2-7.467-9.6h16Zm-16-1.067c0-6.4,2.667-9.067,5.867-9.067s5.333,3.2,5.333,9.067Z" transform="translate(9.567 9.433)" fill="#212121"/>
    <path id="Pfad_42" data-name="Pfad 42" d="M43.1,32.655h4.8V17.722c0-6.4,2.667-9.067,6.4-9.067h1.6v-4.8a7.467,7.467,0,0,0-8,4.8h0V4.388H43.633v5.867Z" transform="translate(-9.5 8.945)" fill="#212121"/>
    <path id="Pfad_43" data-name="Pfad 43" d="M49.067,14.2A8,8,0,0,0,41.6,18.467h0V1.4H36.8V43h4.267V38.733h0a8,8,0,0,0,7.467,4.8c5.867,0,9.6-4.8,9.6-14.4S54.933,14.2,49.067,14.2ZM48,39.8c-4.267,0-6.4-3.733-6.4-10.667S43.733,18.467,48,18.467s6.4,3.733,6.4,10.667S52.267,39.8,48,39.8Z" transform="translate(-36.8 0.6)" fill="#212121"/>
  </g>
  <path id="Pfad_44" data-name="Pfad 44" d="M80,21.333A58.667,58.667,0,0,0,69.333,137.6V80H90.667v57.6A58.667,58.667,0,0,0,80,21.333M80,0A80,80,0,1,1,0,80,80,80,0,0,1,80,0" fill="#fff"/>
</svg>
