<svg xmlns="http://www.w3.org/2000/svg" xmlns:xlink="http://www.w3.org/1999/xlink" width="480" height="125.43" viewBox="0 0 480 125.43">
  <defs>
    <clipPath id="clip-path">
      <rect id="Rechteck_29" data-name="Rechteck 29" width="125.354" height="125.43" fill="#fff"/>
    </clipPath>
  </defs>
  <g id="bremen_next_logo" data-name="bremen next logo" transform="translate(-12.611 -9.138)">
    <g id="Gruppe_6" data-name="Gruppe 6" transform="translate(12.611 9.138)">
      <g id="Gruppe_5" data-name="Gruppe 5">
        <g id="Gruppe_4" data-name="Gruppe 4">
          <g id="Gruppe_3" data-name="Gruppe 3">
            <g id="Gruppe_2" data-name="Gruppe 2" clip-path="url(#clip-path)">
              <path id="Pfad_24" data-name="Pfad 24" d="M75.288,25.891a45.969,45.969,0,0,0-8.371,91.162V71.85H83.66v45.2a45.969,45.969,0,0,0-8.373-91.162m0-16.753A62.714,62.714,0,1,1,12.611,71.852,62.694,62.694,0,0,1,75.288,9.138" transform="translate(-12.611 -9.138)" fill="#fff"/>
            </g>
          </g>
        </g>
      </g>
    </g>
    <path id="Pfad_25" data-name="Pfad 25" d="M374.979,40.116V17.286h-4.284v16.9L369.22,32.54l-14.4-15.254h-4.113v22.83h4.286v-16.9l1.439,1.612,14.843,15.288Z" transform="translate(-30.9 -0.745)" fill="#212121"/>
    <path id="Pfad_26" data-name="Pfad 26" d="M340.338,40.116V36.55H323.883V30.175h12.65V26.713h-12.65V20.85h16.455V17.286H319.6v22.83Z" transform="translate(-28.057 -0.745)" fill="#212121"/>
    <path id="Pfad_27" data-name="Pfad 27" d="M305.977,40.116V17.286h-5.861L291.2,32.951l-1.063,1.92-1.061-1.92-9.016-15.665h-5.93v22.83h4.182V22.051l1.131,1.988,9.46,16.077H291l9.564-16.077,1.13-1.988V40.116Z" transform="translate(-23.901 -0.745)" fill="#212121"/>
    <path id="Pfad_28" data-name="Pfad 28" d="M263.759,40.116V36.55H247.3V30.175h12.649V26.713H247.3V20.85h16.454V17.286H243.02v22.83Z" transform="translate(-21.058 -0.745)" fill="#212121"/>
    <g id="Gruppe_7" data-name="Gruppe 7" transform="translate(160.935 16.541)">
      <path id="Pfad_29" data-name="Pfad 29" d="M231.449,36.173l-.035-1.885c-.034-2.673-.994-4.7-5.45-5.039,4.456-.822,5.724-3.187,5.724-5.69,0-3.531-3.085-6.273-9.941-6.273H209.3v22.83h4.284V30.894h8.09c4.285,0,5.21.96,5.347,3.223l.137,2.331c.137,2.057.651,3.668,1.817,3.668h3.873v-.1a5.062,5.062,0,0,1-1.406-3.84M213.59,27.707V20.85h8.775c3.668,0,5.006,1.613,5.006,3.256v.274c0,1.817-1.475,3.325-4.628,3.325Z" transform="translate(-178.912 -17.286)" fill="#212121"/>
      <path id="Pfad_30" data-name="Pfad 30" d="M193.475,28.735c3.188-.651,4.765-2.811,4.765-5.211v-.308c0-3.531-3.017-5.93-8.707-5.93H175.856v22.83h13.78c5.69,0,8.981-2.469,8.981-6.17v-.309c0-1.885-1.508-4.319-5.142-4.9M180.14,20.85h9.667c3.154,0,4.32,1.44,4.32,3.154v.1c0,1.68-1.371,3.154-4.525,3.154H180.14ZM194.126,33.5c0,1.714-1.166,3.187-4.32,3.187H180.14V30.244H189.6c3.222,0,4.525,1.439,4.525,3.153Z" transform="translate(-175.855 -17.286)" fill="#212121"/>
      <path id="Pfad_31" data-name="Pfad 31" d="M227.595,57.976v32.7l-4.687-5.415-24.16-27.285H175.855v69.357h24.872V94.738l4.79,5.519,24.264,27.076h22.685V57.976Z" transform="translate(-175.855 -21.005)" fill="#212121"/>
      <path id="Pfad_32" data-name="Pfad 32" d="M279.273,57.976v69.357h65.954V108.142H305.691V98.769h30.8V85.291h-30.8V75.606h39.536V57.976Z" transform="translate(-185.307 -21.005)" fill="#212121"/>
      <path id="Pfad_33" data-name="Pfad 33" d="M418.07,57.976,404.1,76.409,390.96,57.976h-30.6l25.6,35.1-25.809,34.261h28.1L402.433,108.9l13.244,18.433H446.17l-25.5-35.3,25.6-34.055Z" transform="translate(-192.699 -21.005)" fill="#212121"/>
      <path id="Pfad_34" data-name="Pfad 34" d="M457.816,57.976v20.41h24.16v48.947H509.14V78.386H533.3V57.976Z" transform="translate(-201.625 -21.005)" fill="#212121"/>
    </g>
  </g>
</svg>
