<svg xmlns="http://www.w3.org/2000/svg" width="480" height="133.987" viewBox="0 0 480 133.987">
  <g id="buten_un_binnen_logo" data-name="buten un binnen logo" transform="translate(0.1)">
    <path id="Pfad_35" data-name="Pfad 35" d="M314.827,82.416h9.958V73.272h-9.958ZM207,89.568H202.3v20.1c0,6.066-2.625,13.308-11.226,13.308-6.428,0-8.963-4.436-8.963-11.316V89.568H177.4v23.267c0,7.967,3.531,14.032,12.856,14.032,7.876,0,10.683-4.074,12.222-7.333h.181v6.518h4.527c-.272-2.9-.272-5.794-.272-8.6V89.568ZM217.6,125.962h4.617v-20.1c0-6.066,2.716-13.308,11.226-13.308,6.428,0,8.963,4.436,8.963,11.316v22.18h4.708V102.786c0-7.967-3.531-14.032-12.856-14.032-7.876,0-10.683,4.074-12.222,7.333h-.181V89.568h-4.527c.272,2.9.272,5.794.272,8.6Zm53.052-53.595h9.959V93.823h.181A13.4,13.4,0,0,1,292.194,88.3c11.679,0,16.024,8.963,16.024,19.1,0,10.049-4.255,19.374-16.024,19.374-4.255,0-8.782-1.449-11.679-5.341h-.272v4.527h-9.6Zm18.74,46.986c6.518,0,8.329-6.88,8.329-11.95,0-4.889-1.811-11.679-8.238-11.679-6.337,0-8.872,6.609-8.872,11.679,0,5.251,2.173,11.95,8.782,11.95m25.439,6.609h9.958V89.206h-9.958Zm19.012,0H343.8V107.946c0-4.708,1.539-12.222,8.782-12.222,6.337,0,6.428,6.066,6.428,10.592v19.645h9.959V102.786c0-8.329-3.893-14.395-12.946-14.395-5.16,0-9.415,1.63-12.493,5.885h-.181V89.3H333.93v36.665Zm43.908,0h9.958V107.946c0-4.708,1.539-12.222,8.782-12.222,6.337,0,6.428,6.066,6.428,10.592v19.645h9.958V102.786c0-8.329-3.893-14.395-12.946-14.395-5.16,0-9.415,1.63-12.493,5.885h-.181V89.3h-9.415v36.665Zm74.6-2.082a27.333,27.333,0,0,1-13.127,2.9c-12.584,0-19.917-6.971-19.917-19.1,0-10.683,5.885-19.464,17.744-19.464,14.123,0,18.106,9.325,18.106,22.18H428.717c.453,5.885,4.708,9.325,10.864,9.325,4.8,0,8.963-1.72,12.674-3.712v7.876Zm-6.7-19.917c-.272-4.617-2.535-8.691-8.057-8.691s-8.419,3.712-8.782,8.691Zm15.934,22h9.958V107.946c0-4.708,1.539-12.222,8.782-12.222,6.337,0,6.428,6.066,6.428,10.592v19.645h9.959V102.786c0-8.329-3.893-14.395-12.946-14.395-5.16,0-9.415,1.63-12.493,5.885h-.181V89.3H461.67v36.665ZM177.491,9.9h9.959V31.447h.181a13.466,13.466,0,0,1,11.407-5.613c11.679,0,16.024,8.963,16.024,19.1,0,10.049-4.255,19.374-16.024,19.374-4.255,0-8.782-1.449-11.679-5.341h-.181v4.527h-9.6V9.9Zm18.74,46.986c6.518,0,8.419-6.88,8.419-11.95,0-4.889-1.811-11.679-8.238-11.679-6.337,0-8.872,6.609-8.872,11.679,0,5.251,2.082,11.95,8.691,11.95m60.113-30.238h-9.958V44.664c0,4.708-1.539,12.222-8.782,12.222-6.337,0-6.428-6.066-6.428-10.592V26.648h-9.958V49.825c0,8.238,3.893,14.395,12.946,14.395a15.91,15.91,0,0,0,12.493-5.885h.181V63.4h9.415V26.648Zm13.127,25.711c0,7.243,4.255,11.95,12.041,11.95a28.275,28.275,0,0,0,7.333-.815l-.272-7.6a9.068,9.068,0,0,1-4.527,1c-3.8,0-4.708-2.9-4.708-6.066v-17.2h8.782V26.648h-8.782V16.237l-9.959,3.078v7.333h-7.243v6.971h7.333Zm55.768,8.963a27.333,27.333,0,0,1-13.127,2.9c-12.584,0-19.917-6.971-19.917-19.1,0-10.683,5.885-19.464,17.744-19.464,14.123,0,18.2,9.325,18.2,22.18H301.791c.453,5.885,4.708,9.325,10.864,9.325,4.8,0,8.963-1.72,12.674-3.712v7.876Zm-6.7-19.917c-.272-4.617-2.535-8.6-8.057-8.6s-8.419,3.712-8.782,8.6Zm15.843,22h9.958V45.479c0-4.708,1.539-12.222,8.782-12.222,6.337,0,6.428,6.066,6.428,10.592V63.4h9.958V40.228c0-8.329-3.893-14.395-12.946-14.395-5.16,0-9.415,1.63-12.493,5.885h-.181V26.739h-9.415V63.4Z" transform="translate(-16.806 -0.937)" fill="#212121"/>
    <path id="Pfad_36" data-name="Pfad 36" d="M133.887,66.994A66.994,66.994,0,1,1,66.984,0,66.958,66.958,0,0,1,133.887,66.994Zm-17.835,0a49.114,49.114,0,1,0-58.031,48.253V66.994H75.856v48.253A49.012,49.012,0,0,0,116.052,66.994Z" transform="translate(0)" fill="#fff" fill-rule="evenodd"/>
  </g>
</svg>
